<svg xmlns="http://www.w3.org/2000/svg" viewBox="0 0 150 40" height="40">
    <title>zPlayer</title>
    <text x="50%" y="50%" font-family="Arial, sans-serif" font-size="20" font-weight="bold" fill="#191414" text-anchor="middle" dominant-baseline="middle" letter-spacing="2">zPlayer</text>
    <g transform="translate(120, 20)">
        <path fill="#191414" d="M7.5 0C11 0 13.5 2.7 13.5 6s-2.5 6-6 6-6-2.7-6-6 2.5-6 6-6zm0 1.5C5.6 1.5 4 3.1 4 6s1.6 4.5 3.5 4.5 3.5-1.6 3.5-4.5S9.4 1.5 7.5 1.5z"/>
        <path fill="#191414" d="M12.4 7.4l4.2-4.2c.2-.2.6-.2.9 0s.2.6 0 .9l-4.2 4.2c-.3.2-.6.2-.9 0s-.2-.6 0-.9z"/>
    </g>
</svg>
